<svg xmlns="http://www.w3.org/2000/svg" width="411" height="411" viewBox="0 0 411 411" fill="none"><path d="M221.589 74.2157C304.708 74.2157 372.089 141.596 372.089 224.715C372.089 253.649 363.922 280.675 349.77 303.616C357.641 285.775 361.972 266.028 361.871 245.267C361.584 186.149 325.464 135.585 274.192 114.055C258.254 106.465 240.418 102.215 221.589 102.215C213.609 102.215 205.807 102.979 198.253 104.436C128.76 114.472 75.5243 174.442 75.8745 246.654C75.9115 254.283 76.5469 261.77 77.7332 269.071C73.4149 255.049 71.0893 240.154 71.0893 224.716C71.0893 141.597 138.47 74.2158 221.589 74.2157Z" fill="#4541B6"></path><path d="M233.856 245.378C233.889 252.282 228.32 257.905 221.417 257.939C214.513 257.972 208.89 252.403 208.856 245.499C208.823 238.596 214.392 232.972 221.295 232.939C228.199 232.905 233.822 238.475 233.856 245.378Z" fill="#4541B6"></path><path d="M174.549 221.733C175.539 219.758 177.942 218.959 179.917 219.948L217.47 238.758C219.445 239.747 220.244 242.15 219.255 244.125C218.266 246.101 215.862 246.9 213.887 245.91L176.334 227.101C174.359 226.112 173.56 223.708 174.549 221.733Z" fill="#4541B6"></path><path d="M223.951 244.928C223.94 242.719 225.723 240.919 227.932 240.908L291.931 240.598C294.14 240.587 295.94 242.37 295.95 244.579C295.961 246.788 294.179 248.587 291.97 248.598L227.97 248.908C225.761 248.919 223.962 247.137 223.951 244.928Z" fill="#4541B6"></path><path d="M216.267 123.962C216.256 121.753 218.039 119.954 220.248 119.943C222.457 119.932 224.256 121.714 224.267 123.923L224.383 147.923C224.394 150.132 222.612 151.932 220.403 151.942C218.194 151.953 216.394 150.171 216.383 147.962L216.267 123.962Z" fill="#4541B6"></path><path d="M277.867 137.008C278.688 135.569 280.521 135.069 281.96 135.89C283.399 136.712 283.899 138.544 283.078 139.983L274.153 155.615C273.332 157.054 271.499 157.554 270.061 156.733C268.622 155.911 268.121 154.079 268.943 152.64L277.867 137.008Z" fill="#4541B6"></path><path d="M324.195 179.975C325.626 179.14 327.463 179.623 328.298 181.053C329.134 182.484 328.651 184.321 327.22 185.157L311.676 194.232C310.245 195.068 308.408 194.585 307.572 193.154C306.737 191.723 307.22 189.886 308.65 189.051L324.195 179.975Z" fill="#4541B6"></path><path d="M341.833 240.355C344.042 240.344 345.842 242.126 345.852 244.335C345.863 246.544 344.081 248.344 341.872 248.355L317.872 248.471C315.663 248.482 313.863 246.7 313.853 244.49C313.842 242.281 315.624 240.482 317.833 240.471L341.833 240.355Z" fill="#4541B6"></path><path d="M328.786 301.954C330.225 302.776 330.726 304.608 329.904 306.047C329.083 307.486 327.251 307.986 325.812 307.165L310.18 298.241C308.741 297.419 308.24 295.587 309.062 294.148C309.883 292.709 311.716 292.209 313.155 293.03L328.786 301.954Z" fill="#4541B6"></path><path d="M285.82 348.283C286.655 349.714 286.172 351.551 284.741 352.386C283.311 353.222 281.473 352.739 280.638 351.308L271.563 335.763C270.727 334.333 271.21 332.495 272.641 331.66C274.072 330.825 275.909 331.307 276.744 332.738L285.82 348.283Z" fill="#4541B6"></path><path d="M117.512 309.908C116.082 310.743 114.244 310.26 113.409 308.829C112.574 307.398 113.056 305.561 114.487 304.726L130.032 295.65C131.463 294.815 133.3 295.298 134.135 296.729C134.971 298.16 134.488 299.997 133.057 300.832L117.512 309.908Z" fill="#4541B6"></path><path d="M99.8745 249.528C97.6654 249.539 95.8659 247.757 95.8552 245.547C95.8445 243.338 97.6266 241.539 99.8357 241.528L123.835 241.412C126.045 241.401 127.844 243.183 127.855 245.392C127.866 247.601 126.083 249.401 123.874 249.412L99.8745 249.528Z" fill="#4541B6"></path><path d="M112.921 187.928C111.482 187.107 110.982 185.274 111.803 183.836C112.624 182.397 114.457 181.896 115.896 182.718L131.528 191.642C132.966 192.463 133.467 194.296 132.646 195.735C131.824 197.174 129.992 197.674 128.553 196.853L112.921 187.928Z" fill="#4541B6"></path><path d="M155.888 141.6C155.052 140.169 155.535 138.332 156.966 137.496C158.397 136.661 160.234 137.144 161.069 138.575L170.145 154.119C170.98 155.55 170.497 157.387 169.067 158.223C167.636 159.058 165.799 158.575 164.963 157.144L155.888 141.6Z" fill="#4541B6"></path><path d="M196.962 49.0642L245.961 48.8267L246.126 82.8263L197.127 83.0639L196.962 49.0642Z" fill="#4541B6"></path><path d="M186.855 27.113C186.829 21.5902 191.284 17.0914 196.807 17.0646L246.806 16.8222C252.329 16.7954 256.828 21.2508 256.854 26.7736L256.951 46.7734C256.978 52.2962 252.523 56.795 247 56.8217L197.001 57.0642C191.478 57.0909 186.979 52.6355 186.952 47.1128L186.855 27.113Z" fill="#4541B6"></path><path d="M116.872 104.514C86.9906 130.467 66.4017 167.284 61.6756 209.719C58.0204 242.54 64.361 274.171 78.2656 301.574C83.7362 312.95 90.6689 323.54 98.8459 333.077C149.877 379.048 259.118 361.752 278.727 291.998C303.089 319.73 306.493 343.624 296.547 362.581C297.178 363.317 297.962 364.082 298.94 364.849C303.835 368.69 307.344 368.048 308.033 367.869C308.04 367.865 308.047 367.861 308.053 367.857C308.049 367.861 308.045 367.864 308.04 367.867C308.112 367.848 308.152 367.837 308.157 367.835C307.903 368.016 307.629 368.205 307.339 368.403C275.161 393.063 233.787 405.817 190.313 400.976L188.222 400.73C99.9532 389.766 36.6609 309.823 46.5346 221.167C52.0153 171.956 78.8982 130.327 116.872 104.514Z" fill="#4541B6"></path><path d="M186.5 296.171C227.346 299.315 245.582 311.24 251.364 328.123C238.379 339.876 221.664 347.899 203.63 352.159C211.753 338.282 208.916 319.711 186.5 296.171Z" fill="#4541B6"></path></svg>